<svg width="32" height="32" viewBox="0 0 32 32" fill="none" xmlns="http://www.w3.org/2000/svg">
<path d="M10.404 7.64111C11.189 7.64111 11.896 7.70911 12.544 7.84811C13.188 7.98511 13.737 8.21211 14.201 8.52511C14.659 8.83911 15.016 9.25511 15.273 9.77711C15.523 10.2931 15.647 10.9391 15.647 11.7011C15.647 12.5281 15.46 13.2191 15.085 13.7691C14.708 14.3211 14.152 14.7731 13.411 15.1231C14.42 15.4151 15.168 15.9251 15.664 16.6511C16.163 17.3831 16.407 18.2591 16.407 19.2851C16.407 20.1191 16.248 20.8351 15.929 21.4361C15.622 22.0283 15.1768 22.5377 14.631 22.9211C14.0652 23.3153 13.4331 23.6046 12.765 23.7751C12.0648 23.9587 11.3438 24.0508 10.62 24.0491H2.66699V7.64111H10.404ZM9.93599 14.2711C10.576 14.2711 11.106 14.1191 11.526 13.8111C11.941 13.5071 12.143 13.0051 12.143 12.3191C12.143 11.9371 12.075 11.6231 11.941 11.3761C11.811 11.1391 11.6187 10.942 11.385 10.8061C11.1403 10.6608 10.8701 10.5634 10.589 10.5191C10.2827 10.4618 9.97158 10.4343 9.65999 10.4371H6.27999V14.2711H9.93599ZM10.137 21.2561C10.493 21.2561 10.832 21.2261 11.151 21.1531C11.472 21.0841 11.757 20.9721 12 20.8051C12.243 20.6451 12.443 20.4281 12.587 20.1511C12.732 19.8761 12.803 19.5171 12.803 19.0871C12.803 18.2411 12.564 17.6401 12.092 17.2761C11.619 16.9161 10.984 16.7371 10.207 16.7371H6.27999V21.2571H10.137V21.2561ZM21.557 21.2011C22.047 21.6791 22.752 21.9191 23.669 21.9191C24.327 21.9191 24.895 21.7521 25.373 21.4211C25.845 21.0891 26.133 20.7351 26.244 20.3681H29.117C28.656 21.7981 27.956 22.8181 26.999 23.4331C26.053 24.0511 24.903 24.3571 23.559 24.3571C22.623 24.3571 21.78 24.2071 21.025 23.9081C20.3009 23.6261 19.6465 23.1904 19.107 22.6311C18.5761 22.0586 18.1656 21.3853 17.9 20.6511C17.616 19.8851 17.473 19.0371 17.473 18.1191C17.473 17.2311 17.621 16.4001 17.912 15.6331C18.209 14.8641 18.617 14.2001 19.157 13.6431C19.7044 13.0774 20.3592 12.6266 21.083 12.3171C21.828 11.9961 22.649 11.8351 23.56 11.8351C24.565 11.8351 25.444 12.0291 26.199 12.4211C26.949 12.8111 27.567 13.3371 28.052 13.9971C28.536 14.6551 28.882 15.4081 29.096 16.2521C29.311 17.0951 29.386 17.9751 29.324 18.8961H20.75C20.752 19.8351 21.068 20.7241 21.558 21.2011H21.557ZM25.307 14.9601C24.919 14.5301 24.263 14.2991 23.46 14.2991C22.939 14.2991 22.508 14.3851 22.161 14.5641C21.8442 14.7244 21.5632 14.9472 21.335 15.2191C21.125 15.4811 20.981 15.7591 20.897 16.0561C20.8201 16.3111 20.7705 16.5736 20.749 16.8391H26.059C25.981 16.0071 25.696 15.3921 25.307 14.9601ZM20.083 8.74311H26.735V10.3631H20.083V8.74311Z" fill="white"/>
</svg>
